<svg width="35" height="35" viewBox="0 0 35 35" fill="none" xmlns="http://www.w3.org/2000/svg">
<path d="M17.4996 13.2457C16.6581 13.2457 15.8355 13.4953 15.1357 13.9628C14.436 14.4303 13.8907 15.0949 13.5686 15.8723C13.2466 16.6498 13.1623 17.5053 13.3265 18.3307C13.4907 19.1561 13.8959 19.9142 14.491 20.5093C15.086 21.1043 15.8442 21.5096 16.6695 21.6738C17.4949 21.8379 18.3504 21.7537 19.1279 21.4316C19.9054 21.1096 20.5699 20.5642 21.0375 19.8645C21.505 19.1648 21.7545 18.3422 21.7545 17.5006C21.7545 16.9419 21.6445 16.3886 21.4307 15.8723C21.2168 15.3561 20.9034 14.887 20.5083 14.4919C20.1132 14.0968 19.6441 13.7834 19.1279 13.5696C18.6117 13.3558 18.0584 13.2457 17.4996 13.2457ZM34.5364 9.04228C34.5274 7.71736 34.2834 6.40454 33.8158 5.16483C33.4714 4.25768 32.9386 3.43386 32.2525 2.74774C31.5664 2.06163 30.7426 1.5288 29.8354 1.18444C28.5957 0.71685 27.2829 0.472874 25.958 0.463848C23.7447 0.34375 23.0928 0.34375 17.4996 0.34375C11.9065 0.34375 11.2545 0.34375 9.0413 0.463848C7.71638 0.472874 6.40356 0.71685 5.16385 1.18444C4.2567 1.5288 3.43289 2.06163 2.74677 2.74774C2.06065 3.43386 1.52783 4.25768 1.18346 5.16483C0.715873 6.40454 0.471898 7.71736 0.462871 9.04228C0.342773 11.2555 0.342773 11.9075 0.342773 17.5006C0.342773 23.0938 0.342773 23.7457 0.462871 25.959C0.481339 27.2885 0.724984 28.6054 1.18346 29.8536C1.5263 30.7566 2.05868 31.5756 2.74473 32.2555C3.42791 32.9458 4.25349 33.4786 5.16385 33.8168C6.40356 34.2844 7.71638 34.5284 9.0413 34.5374C11.2545 34.6575 11.9065 34.6575 17.4996 34.6575C23.0928 34.6575 23.7447 34.6575 25.958 34.5374C27.2829 34.5284 28.5957 34.2844 29.8354 33.8168C30.7458 33.4786 31.5714 32.9458 32.2545 32.2555C32.9406 31.5756 33.473 30.7566 33.8158 29.8536C34.283 28.6078 34.5269 27.2894 34.5364 25.959C34.6565 23.7457 34.6565 23.0938 34.6565 17.5006C34.6565 11.9075 34.6565 11.2555 34.5364 9.04228ZM30.1786 22.7678C30.1235 23.8265 29.8975 24.8694 29.5094 25.856C29.1764 26.679 28.6812 27.4266 28.0534 28.0544C27.4256 28.6822 26.678 29.1774 25.855 29.5104C24.8591 29.8769 23.8104 30.0797 22.7496 30.1109H12.2496C11.1889 30.0797 10.1402 29.8769 9.14425 29.5104C8.29344 29.1943 7.52511 28.6899 6.8967 28.0349C6.27504 27.4194 5.79496 26.6759 5.48983 25.856C5.12192 24.8611 4.9247 23.8112 4.9065 22.7506V17.5006V12.2506C4.9247 11.19 5.12192 10.1401 5.48983 9.14522C5.806 8.29442 6.3104 7.52609 6.96532 6.89767C7.58354 6.27938 8.32631 5.79979 9.14425 5.49081C10.1402 5.12435 11.1889 4.92156 12.2496 4.89032H22.7496C23.8104 4.92156 24.8591 5.12435 25.855 5.49081C26.7058 5.80698 27.4742 6.31138 28.1026 6.9663C28.7242 7.5818 29.2043 8.32535 29.5094 9.14522C29.8759 10.1412 30.0787 11.1899 30.1099 12.2506V17.5006C30.1099 21.0349 30.23 21.3952 30.1786 22.7506V22.7678ZM27.4335 10.0031C27.2292 9.44887 26.9071 8.94559 26.4895 8.52794C26.0718 8.11029 25.5685 7.78822 25.0143 7.58395C24.2534 7.32018 23.4519 7.19241 22.6467 7.2065H12.3526C11.5432 7.21441 10.7417 7.36543 9.98493 7.65258C9.43922 7.84757 8.94127 8.15649 8.52417 8.5588C8.10707 8.96111 7.78038 9.44759 7.56581 9.98591C7.31666 10.75 7.19493 11.5499 7.20552 12.3536V22.6477C7.22253 23.4561 7.37326 24.2561 7.6516 25.0153C7.85587 25.5695 8.17794 26.0728 8.59559 26.4904C9.01324 26.9081 9.51652 27.2302 10.0707 27.4344C10.8027 27.7037 11.5731 27.8542 12.3526 27.8805H22.6467C23.456 27.8726 24.2576 27.7216 25.0143 27.4344C25.5685 27.2302 26.0718 26.9081 26.4895 26.4904C26.9071 26.0728 27.2292 25.5695 27.4335 25.0153C27.7206 24.2586 27.8716 23.457 27.8795 22.6477V17.5006V12.3536C27.88 11.5434 27.7287 10.7403 27.4335 9.98591V10.0031ZM17.4996 24.0545C16.6398 24.0545 15.7884 23.8849 14.9942 23.5553C14.2 23.2257 13.4786 22.7427 12.8714 22.1339C12.2642 21.5251 11.783 20.8025 11.4555 20.0074C11.128 19.2123 10.9606 18.3605 10.9629 17.5006C10.9629 16.2036 11.3477 14.9358 12.0686 13.8577C12.7895 12.7795 13.8141 11.9395 15.0127 11.444C16.2113 10.9484 17.5299 10.8196 18.8017 11.0739C20.0735 11.3282 21.2413 11.9541 22.1572 12.8724C23.0731 13.7907 23.6959 14.9601 23.9469 16.2326C24.1978 17.505 24.0656 18.8233 23.5669 20.0206C23.0682 21.2179 22.2255 22.2403 21.1455 22.9584C20.0654 23.6764 18.7966 24.0579 17.4996 24.0545ZM24.3624 12.2335C23.9831 12.1933 23.6321 12.0142 23.377 11.7307C23.1219 11.4472 22.9808 11.0793 22.9808 10.6979C22.9808 10.3165 23.1219 9.94864 23.377 9.66513C23.6321 9.38161 23.9831 9.20252 24.3624 9.16238C24.7416 9.20252 25.0926 9.38161 25.3477 9.66513C25.6028 9.94864 25.744 10.3165 25.744 10.6979C25.744 11.0793 25.6028 11.4472 25.3477 11.7307C25.0926 12.0142 24.7416 12.1933 24.3624 12.2335Z" fill="black"/>
</svg>
