<svg width="36" height="36" viewBox="0 0 36 36" fill="none" xmlns="http://www.w3.org/2000/svg">
<path d="M17.9893 0.353516C14.4991 0.353516 11.0872 1.3885 8.18517 3.32758C5.28313 5.26666 3.02126 8.02276 1.6856 11.2473C0.349931 14.4719 0.000460804 18.0201 0.681376 21.4433C1.36229 24.8665 3.04301 28.0109 5.511 30.4789C7.97898 32.9469 11.1234 34.6276 14.5466 35.3085C17.9698 35.9895 21.518 35.64 24.7426 34.3043C27.9672 32.9687 30.7233 30.7068 32.6623 27.8047C34.6014 24.9027 35.6364 21.4908 35.6364 18.0006C35.6364 15.6831 35.18 13.3884 34.2931 11.2473C33.4063 9.1063 32.1064 7.1609 30.4677 5.52222C28.829 3.88354 26.8836 2.58367 24.7426 1.69682C22.6015 0.80997 20.3068 0.353516 17.9893 0.353516ZM23.6011 27.0923C23.5353 27.2572 23.4349 27.4061 23.3067 27.5289C23.1786 27.6518 23.0256 27.7458 22.8581 27.8046C22.6906 27.8635 22.5125 27.8858 22.3356 27.8701C22.1588 27.8543 21.9874 27.801 21.8329 27.7135L17.0417 23.99L13.9676 26.8276C13.8962 26.8803 13.8128 26.9142 13.7249 26.9263C13.637 26.9383 13.5475 26.928 13.4646 26.8965L14.0541 21.6217L14.0717 21.6376L14.0841 21.5335C14.0841 21.5335 22.7046 13.6841 23.0558 13.3506C23.4123 13.017 23.2941 12.9447 23.2941 12.9447C23.3152 12.5388 22.657 12.9447 22.657 12.9447L11.2341 20.2929L6.47817 18.6729C6.47817 18.6729 5.74759 18.4117 5.67876 17.8347C5.60641 17.2629 6.50112 16.9523 6.50112 16.9523L25.4135 9.43822C25.4135 9.43822 26.9682 8.74646 26.9682 9.89351L23.6011 27.0923Z" fill="black"/>
</svg>
