<svg width="36" height="36" viewBox="0 0 36 36" fill="none" xmlns="http://www.w3.org/2000/svg">
<path d="M33.3007 8.32473C27.9007 -0.000275195 16.8757 -2.47527 8.32572 2.69973C0.000724494 7.87473 -2.69928 19.1247 2.70073 27.4497L3.15073 28.1247L1.35072 34.8747L8.10073 33.0747L8.77573 33.5247C11.7007 35.0997 14.8507 35.9997 18.0007 35.9997C21.3757 35.9997 24.7507 35.0997 27.6757 33.2997C36.0007 27.8997 38.4757 16.8747 33.3007 8.32473ZM28.5757 25.6497C27.6757 26.9997 26.5507 27.8997 24.9757 28.1247C24.0757 28.1247 22.9507 28.5747 18.4507 26.7747C14.6257 24.9747 11.4757 22.0497 9.22573 18.6747C7.87572 17.0997 7.20072 15.0747 6.97572 13.0497C6.97572 11.2497 7.65073 9.67473 8.77573 8.54973C9.22573 8.09973 9.67572 7.87473 10.1257 7.87473H11.2507C11.7007 7.87473 12.1507 7.87473 12.3757 8.77473C12.8257 9.89973 13.9507 12.5997 13.9507 12.8247C14.1757 13.0497 14.1757 13.4997 13.9507 13.7247C14.1757 14.1747 13.9507 14.6247 13.7257 14.8497C13.5007 15.0747 13.2757 15.5247 13.0507 15.7497C12.6007 15.9747 12.3757 16.4247 12.6007 16.8747C13.5007 18.2247 14.6257 19.5747 15.7507 20.6997C17.1007 21.8247 18.4507 22.7247 20.0257 23.3997C20.4757 23.6247 20.9257 23.6247 21.1507 23.1747C21.3757 22.7247 22.5007 21.5997 22.9507 21.1497C23.4007 20.6997 23.6257 20.6997 24.0757 20.9247L27.6757 22.7247C28.1257 22.9497 28.5757 23.1747 28.8007 23.3997C29.0257 24.0747 29.0257 24.9747 28.5757 25.6497Z" fill="black"/>
</svg>
